# xmcd
#
# Track frame offsets:
# 150
# 10281
# 19128
# 26763
# 36190
# 46080
# 64813
# 73400
# 83276
# 92235
# 105716
# 119403
# 130739
# 147163
# 158451
# 169273
# 181825
# 193737
# 202394
# 216937
# 227068
# 234703
# 244130
# 254020
# 267707
# 280383
# 289140
#
# Disc length: 4025 seconds
#
#
# Revision: 0
# Processed by: cddbd v1.4PL0 Copyright (c) Steve Scherf et al.
# Submitted via: FreeRIP 2.00 
#
DISCID=9c0fb71b
DTITLE=Waylon Jennings - Destiny's Child Disc 1
DYEAR=1999
DGENRE=Country
TTITLE0=When Sin Stops
TTITLE1=Jole Blon
TTITLE2=Another Blue Day
TTITLE3=Never Again
TTITLE4=My Baby Walks All Over Me
TTITLE5=The Stage
TTITLE6=Rave On
TTITLE7=Love Denied
TTITLE8=Rave On
TTITLE9=Four Strong Winds
TTITLE10=I'm Coming Home
TTITLE11=Just To Satisfy You
TTITLE12=The House Of The Rising Sun
TTITLE13=Big Mamou
TTITLE14=Sing The Girls A Song, Bill
TTITLE15=River Boy
TTITLE16=The Race Is On
TTITLE17=Stepping Stone
TTITLE18=Unchained Melody
TTITLE19=When Sin Stops
TTITLE20=Another Blue Day
TTITLE21=Never Again
TTITLE22=My Baby Walks All Over Me
TTITLE23=I'm Coming Home
TTITLE24=Just To Satisfy You (with Willie Nelson)
TTITLE25=The South's Gonna Rise Again [Demo Version]
TTITLE26=Gulf Coast Belle [Demo Version]
EXTD=Bear Family\nBCD 16320 FK
EXTT0=
EXTT1=
EXTT2=
EXTT3=
EXTT4=
EXTT5=
EXTT6=
EXTT7=
EXTT8=
EXTT9=
EXTT10=
EXTT11=
EXTT12=
EXTT13=
EXTT14=
EXTT15=
EXTT16=
EXTT17=
EXTT18=
EXTT19=
EXTT20=
EXTT21=
EXTT22=
EXTT23=
EXTT24=
EXTT25=
EXTT26=
PLAYORDER=
